# xmcd
#
# Track frame offsets: 
#        150
#        16525
#        31401
#        50771
#        63327
#        86272
#        100168
#        124785
#        140448
#        154077
#        173289
#        192038
#        215651
#
# Disc length: 3173 seconds
#
# Revision: 0
# Processed by: cddbd v1.5.1PL0 Copyright (c) Steve Scherf et al.
# Submitted via: ExactAudioCopy v0.95a4
#
DISCID=9f0c630d
DTITLE=J. T. Lauritsen - Perfect Moves
DYEAR=2004
DGENRE=Blues
TTITLE0=Best Friends
TTITLE1=The Honey - Do - List
TTITLE2=One Of Us Is Leaving
TTITLE3=Harry's Place
TTITLE4=Junkie For Your Love
TTITLE5=Run Baby Run
TTITLE6=Hole In My Heart
TTITLE7=Mad About You
TTITLE8=Did You Find Love
TTITLE9=Misery and Gin
TTITLE10=Use Me
TTITLE11=Person Pleaser
TTITLE12=Saddle Up For Set You In
EXTD=
EXTT0=
EXTT1=
EXTT2=
EXTT3=
EXTT4=
EXTT5=
EXTT6=
EXTT7=
EXTT8=
EXTT9=
EXTT10=
EXTT11=
EXTT12=
PLAYORDER=
